<?xml version="1.0" encoding="utf-8"?>
<!-- Generator: Adobe Illustrator 26.0.0, SVG Export Plug-In . SVG Version: 6.00 Build 0)  -->
<svg version="1.1" id="Layer_1" xmlns="http://www.w3.org/2000/svg" xmlns:xlink="http://www.w3.org/1999/xlink" x="0px" y="0px"
	 viewBox="0 0 700 700" style="enable-background:new 0 0 700 700;" xml:space="preserve">
<path d="M599.9,354.4c3.6-17.9,2.4-32.5-1.7-43.9c-0.5-1.5-1.1-3-1.5-4.6c-1.4-4.8-6-16.8-17.3-24.1c0.2,0.2,2.8,3.5,3.5,6.9
	c-8.2-6.5-18.1-9.5-27.8-9.4c-5.7,0.1-10.8,1.2-15.3,3.1c-16.9,7.1-25.1,25.2-19.1,40.6c7.6,19.5,21.6,13.1,21.6,13.1
	s-14-4.2-8.5-20.8c5.5-16.5,56.4-14.8,33,25.9c-23.5,40.7-85.1,24.3-128-18.2c-43-42.6-88.7-14.6-88.7-14.6L350,310l-0.1-1.5
	c0,0-45.7-28-88.7,14.6c-42.8,42.5-104.5,58.9-128,18.2c-23.4-40.7,27.4-42.4,33-25.9c5.5,16.5-8.5,20.8-8.5,20.8s14,6.5,21.6-13.1
	c6-15.4-2.2-33.4-19-40.6c-4.5-1.9-9.7-3.1-15.3-3.1c-9.7-0.2-19.6,2.9-27.8,9.4c0.7-3.4,3.3-6.7,3.5-6.9
	c-11.3,7.3-15.9,19.4-17.3,24.1c-0.5,1.5-1,3-1.5,4.6c-4.1,11.4-5.3,26-1.7,43.9c3.2,16.4,13,30.1,26.7,40.7
	c-10.8-5.5-18.4-10.6-18.4-10.6c26.1,31.7,74.9,34,74.9,34c8.5,1.4,17.1,2.2,25.7,2.2c11.4,0,22.8-1.3,33.6-3.9
	c28.6-7,50.1-15.1,66.2-22.9c-14.5,13.6-38.7,22.1-38.7,22.1c46.8-6,72.8-39.9,79.9-50.6c7.2,10.8,33.2,44.6,79.9,50.6
	c0,0-24.2-8.6-38.7-22.1c16,7.8,37.5,15.9,66.2,22.9c10.8,2.6,22.1,3.9,33.6,3.9c8.6,0,17.3-0.7,25.7-2.2c0,0,48.7-2.3,74.9-34
	c0,0-7.6,5.2-18.4,10.6C586.8,384.5,596.6,370.8,599.9,354.4L599.9,354.4z"/>
</svg>
